<svg width="80" height="80" viewBox="0 0 80 80" fill="none" xmlns="http://www.w3.org/2000/svg">
<g clip-path="url(#clip0_2183_2)">
<rect width="80" height="80" fill="white"/>
<rect width="80" height="80" fill="#859A93"/>
<path d="M10.9 72.26C10.9 72.76 10.99 73.23 11.17 73.67C11.35 74.09 11.59 74.46 11.89 74.78C12.21 75.1 12.58 75.35 13 75.53C13.44 75.71 13.91 75.8 14.41 75.8C14.89 75.8 15.34 75.71 15.76 75.53C16.2 75.35 16.57 75.1 16.87 74.78C17.19 74.46 17.44 74.09 17.62 73.67C17.82 73.25 17.92 72.8 17.92 72.32C17.92 71.84 17.82 71.39 17.62 70.97C17.44 70.53 17.19 70.15 16.87 69.83C16.57 69.51 16.2 69.26 15.76 69.08C15.34 68.9 14.89 68.81 14.41 68.81C13.91 68.81 13.44 68.9 13 69.08C12.58 69.26 12.21 69.51 11.89 69.83C11.59 70.15 11.35 70.52 11.17 70.94C10.99 71.34 10.9 71.78 10.9 72.26ZM17.74 64.61H23.2V80H17.74V78.29C16.58 79.75 15.01 80.48 13.03 80.48C11.91 80.48 10.88 80.28 9.94 79.88C9 79.46 8.18 78.88 7.48 78.14C6.78 77.4 6.23 76.53 5.83 75.53C5.45 74.53 5.26 73.44 5.26 72.26C5.26 71.16 5.45 70.12 5.83 69.14C6.21 68.14 6.74 67.27 7.42 66.53C8.1 65.79 8.91 65.21 9.85 64.79C10.79 64.35 11.83 64.13 12.97 64.13C14.89 64.13 16.48 64.8 17.74 66.14V64.61ZM31.0881 64.61L34.7781 72.71L38.6181 64.61H42.0381L45.8781 72.95L49.7481 64.61H55.7781L47.7381 80H44.1081L40.2681 71.57L36.6081 80H32.9181L25.0281 64.61H31.0881ZM61.6281 72.26C61.6281 72.76 61.7181 73.23 61.8981 73.67C62.0781 74.09 62.3181 74.46 62.6181 74.78C62.9381 75.1 63.3081 75.35 63.7281 75.53C64.1681 75.71 64.6381 75.8 65.1381 75.8C65.6181 75.8 66.0681 75.71 66.4881 75.53C66.9281 75.35 67.2981 75.1 67.5981 74.78C67.9181 74.46 68.1681 74.09 68.3481 73.67C68.5481 73.25 68.6481 72.8 68.6481 72.32C68.6481 71.84 68.5481 71.39 68.3481 70.97C68.1681 70.53 67.9181 70.15 67.5981 69.83C67.2981 69.51 66.9281 69.26 66.4881 69.08C66.0681 68.9 65.6181 68.81 65.1381 68.81C64.6381 68.81 64.1681 68.9 63.7281 69.08C63.3081 69.26 62.9381 69.51 62.6181 69.83C62.3181 70.15 62.0781 70.52 61.8981 70.94C61.7181 71.34 61.6281 71.78 61.6281 72.26ZM68.4681 64.61H73.9281V80H68.4681V78.29C67.3081 79.75 65.7381 80.48 63.7581 80.48C62.6381 80.48 61.6081 80.28 60.6681 79.88C59.7281 79.46 58.9081 78.88 58.2081 78.14C57.5081 77.4 56.9581 76.53 56.5581 75.53C56.1781 74.53 55.9881 73.44 55.9881 72.26C55.9881 71.16 56.1781 70.12 56.5581 69.14C56.9381 68.14 57.4681 67.27 58.1481 66.53C58.8281 65.79 59.6381 65.21 60.5781 64.79C61.5181 64.35 62.5581 64.13 63.6981 64.13C65.6181 64.13 67.2081 64.8 68.4681 66.14V64.61Z" fill="#F8F8F6"/>
</g>
<defs>
<clipPath id="clip0_2183_2">
<rect width="80" height="80" fill="white"/>
</clipPath>
</defs>
</svg>
